<?xml version="1.0" encoding="UTF-8"?>
<svg width="42px" height="42px" viewBox="0 0 42 42" version="1.1" xmlns="http://www.w3.org/2000/svg" xmlns:xlink="http://www.w3.org/1999/xlink">
    <!-- Generator: Sketch 40.3 (33839) - http://www.bohemiancoding.com/sketch -->
    <title>支付宝 选中</title>
    <desc>Created with Sketch.</desc>
    <defs></defs>
    <g id="Page-1" stroke="none" stroke-width="1" fill="none" fill-rule="evenodd">
        <g id="支付宝-选中" fill="#29A1F7">
            <path d="M39.1000909,31.645872 C40.9404545,28.5235709 42,24.8867727 42,20.9998849 C42,9.40222119 32.5977273,0 21,0 C9.40227273,0 0,9.40222119 0,20.9998849 C0,32.5985031 9.40227273,41.9997698 21,41.9997698 C27.7152273,41.9997698 33.6897273,38.8440598 37.5336818,33.9386776 C35.3525455,32.4935037 27.6235909,27.2139418 24.7790455,25.855631 C21.8304545,30.4364695 19.1911364,31.9150523 14.6961818,31.5609179 C9.69436364,31.1657383 9.45668182,27.3533046 9.49486364,26.270856 C9.63040909,22.4173771 13.4848636,20.4548424 17.4844091,21.0705209 C22.113,21.7826079 23.8092273,22.9146926 23.7758182,22.8726928 C24.5575909,21.5563819 24.6072273,21.0714754 25.3966364,19.0908045 L13.3636364,19.0908045 L13.3636364,17.181724 L20.0454545,17.181724 L20.0454545,15.2726436 L11.4545455,15.2726436 L11.4545455,13.3635631 L20.0454545,13.3635631 L20.1094091,10.2832618 C20.1094091,10.2832618 20.1008182,9.55017493 20.6840455,9.54731131 C21.5851364,9.54253861 21.9669545,9.5186751 21.9545455,9.54540223 L21.9545455,13.3635631 L30.5454545,13.3635631 L30.5454545,15.2726436 L21.9545455,15.2726436 L21.9545455,17.181724 L28.6363636,17.181724 C27.4431818,19.7398918 26.7578182,22.0241066 25.6782273,23.9665959 C28.5895909,25.4585423 37.3360909,30.6206958 39.1000909,31.645872 L39.1000909,31.645872 Z M11.6664545,24.8214031 C11.1405,26.0339888 11.2846364,28.8646067 15.0226364,29.179954 C17.8853182,29.4220958 20.3012727,28.3662452 22.8499091,24.4028171 C21.1498636,23.6003707 19.2493636,23.0147256 17.1865909,22.6787305 C14.3124545,22.2085251 12.3613636,23.2221415 11.6664545,24.8214031 L11.6664545,24.8214031 Z"></path>
        </g>
    </g>
</svg>