<?xml version="1.0" standalone="no"?><!DOCTYPE svg PUBLIC "-//W3C//DTD SVG 1.1//EN"
  "http://www.w3.org/Graphics/SVG/1.1/DTD/svg11.dtd">
<svg t="1546499711267" class="icon" style="" viewBox="0 0 1274 1024" version="1.1" xmlns="http://www.w3.org/2000/svg"
     p-id="18045" xmlns:xlink="http://www.w3.org/1999/xlink" width="248.828125" height="200">
  <defs>
    <style type="text/css"></style>
  </defs>
  <path
    d="M390.264 77.168l181.264 55.102 230.256 431.466a24.933 24.933 0 0 1-10.222 33.66l-430.968 230.07a24.138 24.138 0 0 1-11.718 2.991 24.668 24.668 0 0 1-21.941-13.277L45.44 289.348a25.058 25.058 0 0 1-1.807-18.95 24.497 24.497 0 0 1 12.092-14.71l334.54-178.52m-1.372-13.277L49.866 244.842a37.166 37.166 0 0 0-15.334 50.365L316.09 823.04a37.197 37.197 0 0 0 32.974 19.697 36.558 36.558 0 0 0 17.453-4.363l430.78-229.883a37.166 37.166 0 0 0 15.334-50.365L580.005 121.923z m0 0"
    fill="#B2B2B2" p-id="18046"></path>
  <path
    d="M60.899 249.704a37.166 37.166 0 0 0-15.334 50.365l281.681 527.833a37.166 37.166 0 0 0 50.365 15.333l430.78-229.882a37.166 37.166 0 0 0 15.334-50.365L591.1 126.91 399.988 68.815z m0 0"
    fill="#FFFFFF" p-id="18047"></path>
  <path
    d="M474.912 192.982a25.23 25.23 0 0 1-7.48-1.122 25.697 25.697 0 0 1-15.209-12.467l-53.294-99.732 10.908-5.86 53.232 99.733a13.137 13.137 0 0 0 7.791 6.483 13.9 13.9 0 0 0 10.223-0.998l99.732-53.232 5.86 10.908-99.733 53.232a26.865 26.865 0 0 1-12.217 2.992z m0 0"
    fill="#BDE3F4" p-id="18048"></path>
  <path
    d="M142.555 358.786A22.19 22.19 0 0 0 153.65 378a22.16 22.16 0 0 0 22.19 0 22.19 22.19 0 0 0 11.158-19.214 22.206 22.206 0 0 0-11.095-19.214 22.19 22.19 0 0 0-22.19 0 22.19 22.19 0 0 0-11.096 19.214z m79.66-47.497a22.19 22.19 0 0 0 11.096 19.214 22.206 22.206 0 0 0 22.19 0 22.19 22.19 0 0 0 11.096-19.214 22.175 22.175 0 0 0-11.033-19.214 22.175 22.175 0 0 0-22.19 0 22.175 22.175 0 0 0-11.096 19.214z m79.786-47.622a22.19 22.19 0 0 0 22.129 22.19 22.19 22.19 0 0 0 22.252-22.19 22.19 22.19 0 0 0-22.252-22.128A22.19 22.19 0 0 0 302 263.667z m225.894 27.738l-312.848 168.11a21.255 21.255 0 0 1-28.673-8.601l-0.124-0.25a21.255 21.255 0 0 1 8.54-28.672L507.7 254.005a21.255 21.255 0 0 1 28.672 8.54l0.125 0.25a21.1 21.1 0 0 1-8.602 28.61z m74.176 110.827L289.16 570.343a21.255 21.255 0 0 1-28.673-8.602l-0.125-0.249a21.24 21.24 0 0 1 8.602-28.673l312.91-168.049a21.255 21.255 0 0 1 28.673 8.602l0.125 0.25a21.24 21.24 0 0 1-8.602 28.673z m-72.805 152.902l-192.67 103.472a21.255 21.255 0 0 1-28.673-8.602l-0.125-0.249a21.255 21.255 0 0 1 8.54-28.673L509.07 517.61a21.255 21.255 0 0 1 28.673 8.602l0.125 0.25a21.022 21.022 0 0 1-8.602 28.672z m0 0"
    fill="#B2B2B2" p-id="18049"></path>
  <path
    d="M398.742 841.49a40.859 40.859 0 0 1-40.766-40.765V46.875a40.859 40.859 0 0 1 40.766-40.766h481.83l174.283 174.282V800.6a40.859 40.859 0 0 1-40.766 40.765H398.742z m0 0"
    fill="#FFFFFF" p-id="18050"></path>
  <path
    d="M877.955 12.342l170.791 170.791v617.592a34.532 34.532 0 0 1-34.532 34.532H398.679a34.532 34.532 0 0 1-34.532-34.532V46.875a34.532 34.532 0 0 1 34.595-34.533h479.213M883.19 0H398.74a47.03 47.03 0 0 0-46.998 46.999v753.726a47.03 47.03 0 0 0 46.999 46.998h615.347a47.03 47.03 0 0 0 46.999-46.998V177.897z m0 0"
    fill="#B2B2B2" p-id="18051"></path>
  <path d="M1050.304 178.52h-142.43a24.653 24.653 0 0 1-24.683-24.683V11.469" fill="#FFFFFF" p-id="18052"></path>
  <path
    d="M1050.304 184.63h-142.43a30.855 30.855 0 0 1-30.792-30.793V11.469h12.467v142.368a18.404 18.404 0 0 0 18.45 18.45h142.305v12.342z m-434.52 50.24a9.506 9.506 0 0 1-5.36-1.746l-62.209-44.568a9.35 9.35 0 0 1-2.12-12.965 9.35 9.35 0 0 1 12.966-2.12l62.208 44.63a9.35 9.35 0 0 1 2.057 12.904 9.552 9.552 0 0 1-7.605 3.864z m0 0"
    fill="#B2B2B2" p-id="18053"></path>
  <path
    d="M537.12 286.231a9.568 9.568 0 0 1-7.792-4.238 9.147 9.147 0 0 1 2.68-12.84l77.792-50.615a9.256 9.256 0 0 1 12.84 2.743 9.24 9.24 0 0 1-2.742 12.84l-77.791 50.614a8.976 8.976 0 0 1-4.987 1.559z m260.052-51.362a9.552 9.552 0 0 1-7.605-3.864 9.35 9.35 0 0 1 2.057-12.966l62.333-44.63a9.35 9.35 0 0 1 12.965 2.12 9.35 9.35 0 0 1-2.182 13.027l-62.208 44.568a9.475 9.475 0 0 1-5.36 1.745z m0 0"
    fill="#B2B2B2" p-id="18054"></path>
  <path
    d="M875.773 286.231a9.708 9.708 0 0 1-5.111-1.558l-77.729-50.676a9.35 9.35 0 0 1-2.743-12.84 9.35 9.35 0 0 1 12.84-2.744l77.792 50.615a9.35 9.35 0 0 1 2.743 12.84 9.07 9.07 0 0 1-7.792 4.363z m-169.358-0.124c14.025 0 26.055 15.707 26.055 34.158s-11.967 34.158-26.055 34.158-26.055-15.708-26.055-34.158 11.968-34.158 26.055-34.158m0-18.575c-24.683 0-44.63 23.686-44.63 52.858s19.947 52.858 44.63 52.858 44.693-23.687 44.693-52.858-20.009-52.858-44.693-52.858zM471.92 466.622a22.19 22.19 0 1 0 22.19-22.19 22.19 22.19 0 0 0-22.19 22.19z m447.922 21.318H564.671a21.178 21.178 0 0 1-21.193-21.193v-0.25a21.162 21.162 0 0 1 21.193-21.193h355.171a21.162 21.162 0 0 1 21.193 21.193v0.25a21.178 21.178 0 0 1-21.193 21.193zM471.92 608.74a22.19 22.19 0 1 0 22.19-22.19 22.19 22.19 0 0 0-22.19 22.19z m447.922 21.318H564.671a21.178 21.178 0 0 1-21.193-21.193v-0.25a21.162 21.162 0 0 1 21.193-21.193h355.171a21.178 21.178 0 0 1 21.193 21.194v0.249a21.178 21.178 0 0 1-21.193 21.193z m-447.922 120.8a22.19 22.19 0 1 0 22.19-22.19 22.19 22.19 0 0 0-22.19 22.19z m447.922 21.318H564.671a21.178 21.178 0 0 1-21.193-21.193v-0.25a21.178 21.178 0 0 1 21.193-21.192h355.171a21.178 21.178 0 0 1 21.193 21.193v0.25a21.178 21.178 0 0 1-21.193 21.192z m176.838 78.913H181.139a9.35 9.35 0 0 1-9.35-9.35 9.35 9.35 0 0 1 9.35-9.35h915.665a9.35 9.35 0 0 1 9.35 9.35 9.521 9.521 0 0 1-9.474 9.35z m-937.857 0H64.951a9.35 9.35 0 0 1-9.35-9.35 9.35 9.35 0 0 1 9.35-9.35h93.872a9.35 9.35 0 0 1 9.35 9.35 9.35 9.35 0 0 1-9.35 9.35z m0 0"
    fill="#B2B2B2" p-id="18055"></path>
  <path
    d="M46.375 851.09H9.35A9.35 9.35 0 0 1 0 841.74a9.35 9.35 0 0 1 9.35-9.35h37.025a9.35 9.35 0 0 1 9.35 9.35 9.35 9.35 0 0 1-9.35 9.35z m1160.26 0h-91.38a9.35 9.35 0 0 1 0-18.7h91.38a9.35 9.35 0 0 1 0 18.7z m58.094 0h-37.026a9.35 9.35 0 0 1 0-18.7h37.026a9.35 9.35 0 0 1 0 18.7z m-929.13 57.969h-40.766a9.35 9.35 0 0 1-9.35-9.35 9.35 9.35 0 0 1 9.35-9.35H335.6a9.35 9.35 0 0 1 9.35 9.35 9.35 9.35 0 0 1-9.35 9.35z m254.441 0H366.391a9.35 9.35 0 0 1-9.35-9.35 9.35 9.35 0 0 1 9.35-9.35h223.65a9.35 9.35 0 1 1 0 18.7z m305.306 0h-260.8a9.35 9.35 0 0 1 0-18.7H895.22a9.35 9.35 0 0 1 9.35 9.35 9.225 9.225 0 0 1-9.225 9.35z m104.968 0H932.37a9.35 9.35 0 0 1 0-18.7h67.943a9.35 9.35 0 0 1 0 18.7zM748.24 1024H529.578a9.35 9.35 0 0 1 0-18.7H748.24a9.35 9.35 0 1 1 0 18.7z m67.942 0h-17.328a9.35 9.35 0 0 1 0-18.7h17.328a9.35 9.35 0 0 1 0 18.7z m-324.877 0h-30.917a9.35 9.35 0 0 1 0-18.7h30.917a9.35 9.35 0 0 1 0 18.7z m578.508-983.234h-30.917a6.233 6.233 0 0 1-6.233-6.234 6.233 6.233 0 0 1 6.233-6.233h30.917a6.233 6.233 0 0 1 6.234 6.233 6.233 6.233 0 0 1-6.234 6.234z m0 0"
    fill="#B2B2B2" p-id="18056"></path>
  <path
    d="M1054.356 56.224a6.233 6.233 0 0 1-6.233-6.233V19.074a6.233 6.233 0 0 1 6.233-6.233 6.233 6.233 0 0 1 6.233 6.233V49.99a6.233 6.233 0 0 1-6.233 6.233z m-15.957 59.34a6.233 6.233 0 0 1-6.233-6.233v-1.558a6.233 6.233 0 0 1 6.233-6.233 6.233 6.233 0 0 1 6.233 6.233v1.558a6.327 6.327 0 0 1-6.233 6.234z m115.938-12.466h-30.792a6.233 6.233 0 0 1-6.233-6.233 6.233 6.233 0 0 1 6.233-6.233h30.917a6.233 6.233 0 0 1 6.233 6.233 6.233 6.233 0 0 1-6.358 6.233z m0 0"
    fill="#B2B2B2" p-id="18057"></path>
  <path
    d="M1138.879 118.557a6.233 6.233 0 0 1-6.233-6.234V81.406a6.233 6.233 0 0 1 6.233-6.233 6.233 6.233 0 0 1 6.233 6.233v30.917a6.233 6.233 0 0 1-6.233 6.234zM152.528 763.948H103.16a9.35 9.35 0 0 1-9.35-9.35 9.35 9.35 0 0 1 9.35-9.35h49.368a9.35 9.35 0 0 1 9.35 9.35 9.35 9.35 0 0 1-9.35 9.35z m0 0"
    fill="#B2B2B2" p-id="18058"></path>
  <path
    d="M127.782 788.757a9.35 9.35 0 0 1-9.35-9.35v-49.368a9.35 9.35 0 0 1 9.35-9.35 9.256 9.256 0 0 1 9.35 9.35v49.368a9.35 9.35 0 0 1-9.35 9.35z m39.893-200.587h-49.368a9.35 9.35 0 0 1-9.35-9.35 9.35 9.35 0 0 1 9.35-9.35h49.368a9.35 9.35 0 0 1 9.35 9.35 9.35 9.35 0 0 1-9.35 9.35z m0 0"
    fill="#B2B2B2" p-id="18059"></path>
  <path
    d="M142.929 612.854a9.35 9.35 0 0 1-9.35-9.35v-49.367a9.35 9.35 0 0 1 9.35-9.35 9.256 9.256 0 0 1 9.35 9.35v49.367a9.35 9.35 0 0 1-9.35 9.35z m43.632 166.927a9.35 9.35 0 0 1-8.477-5.485 9.35 9.35 0 0 1 4.675-12.342l1.122-0.499a9.35 9.35 0 0 1 12.342 4.675 9.35 9.35 0 0 1-4.675 12.342l-1.122 0.499a11.267 11.267 0 0 1-3.865 0.748z m0 0"
    fill="#B2B2B2" p-id="18060"></path>
</svg>
